<mxfile host="Electron" modified="2024-04-24T11:11:32.243Z" agent="Mozilla/5.0 (Windows NT 10.0; Win64; x64) AppleWebKit/537.36 (KHTML, like Gecko) draw.io/24.2.5 Chrome/120.0.6099.109 Electron/28.1.0 Safari/537.36" etag="7gLLCZ0rvS8Hc_-lUopO" version="24.2.5" type="device">
  <diagram name="Page-1" id="LLh8sa6MYWyvtDAH6GeS">
    <mxGraphModel dx="1221" dy="823" grid="1" gridSize="10" guides="1" tooltips="1" connect="1" arrows="1" fold="1" page="1" pageScale="1" pageWidth="850" pageHeight="1100" math="0" shadow="0">
      <root>
        <mxCell id="0" />
        <mxCell id="1" parent="0" />
        <mxCell id="9VswtGHnclZ0MFtlXAJz-26" style="edgeStyle=orthogonalEdgeStyle;rounded=0;orthogonalLoop=1;jettySize=auto;html=1;exitX=0;exitY=0.5;exitDx=0;exitDy=0;entryX=1;entryY=0.5;entryDx=0;entryDy=0;" parent="1" source="9VswtGHnclZ0MFtlXAJz-8" target="9VswtGHnclZ0MFtlXAJz-19" edge="1">
          <mxGeometry relative="1" as="geometry" />
        </mxCell>
        <mxCell id="9VswtGHnclZ0MFtlXAJz-8" value="MVC_pattern" style="swimlane;whiteSpace=wrap;html=1;startSize=40;" parent="1" vertex="1">
          <mxGeometry x="640" y="260" width="180" height="100" as="geometry" />
        </mxCell>
        <mxCell id="9VswtGHnclZ0MFtlXAJz-9" value="+main(): void" style="text;html=1;align=center;verticalAlign=middle;resizable=0;points=[];autosize=1;strokeColor=none;fillColor=none;" parent="9VswtGHnclZ0MFtlXAJz-8" vertex="1">
          <mxGeometry x="45" y="55" width="90" height="30" as="geometry" />
        </mxCell>
        <mxCell id="9VswtGHnclZ0MFtlXAJz-16" value="LaptopView" style="swimlane;whiteSpace=wrap;html=1;startSize=40;" parent="1" vertex="1">
          <mxGeometry x="20" y="260" width="180" height="100" as="geometry" />
        </mxCell>
        <mxCell id="9VswtGHnclZ0MFtlXAJz-3" value="+PrintLaptopDetails(): void" style="text;html=1;align=center;verticalAlign=middle;resizable=0;points=[];autosize=1;strokeColor=none;fillColor=none;" parent="9VswtGHnclZ0MFtlXAJz-16" vertex="1">
          <mxGeometry x="5" y="55" width="170" height="30" as="geometry" />
        </mxCell>
        <mxCell id="9VswtGHnclZ0MFtlXAJz-25" style="edgeStyle=orthogonalEdgeStyle;rounded=0;orthogonalLoop=1;jettySize=auto;html=1;exitX=0.5;exitY=1;exitDx=0;exitDy=0;" parent="1" source="9VswtGHnclZ0MFtlXAJz-19" target="9VswtGHnclZ0MFtlXAJz-23" edge="1">
          <mxGeometry relative="1" as="geometry" />
        </mxCell>
        <mxCell id="9VswtGHnclZ0MFtlXAJz-27" style="edgeStyle=orthogonalEdgeStyle;rounded=0;orthogonalLoop=1;jettySize=auto;html=1;exitX=0;exitY=0.5;exitDx=0;exitDy=0;entryX=1;entryY=0.5;entryDx=0;entryDy=0;" parent="1" source="9VswtGHnclZ0MFtlXAJz-19" target="9VswtGHnclZ0MFtlXAJz-16" edge="1">
          <mxGeometry relative="1" as="geometry" />
        </mxCell>
        <mxCell id="9VswtGHnclZ0MFtlXAJz-19" value="LaptopController" style="swimlane;whiteSpace=wrap;html=1;startSize=40;" parent="1" vertex="1">
          <mxGeometry x="320" y="200" width="180" height="220" as="geometry" />
        </mxCell>
        <mxCell id="akFNyRGLj6l6cy-h_4zu-3" value="&lt;div&gt;+getLaptopRAM() String&lt;br&gt;+setLaptopRAM() :void&lt;/div&gt;+getLaptopName() :String&lt;br&gt;+setLaptopName() :void&lt;br&gt;+getLaptopType() :String&lt;br&gt;+setLaptopType() :void&lt;div&gt;+updateView() :void&lt;br&gt;&lt;div&gt;&lt;br&gt;&lt;div&gt;&lt;br&gt;&lt;/div&gt;&lt;/div&gt;&lt;/div&gt;" style="text;html=1;align=center;verticalAlign=middle;resizable=0;points=[];autosize=1;strokeColor=none;fillColor=none;" vertex="1" parent="9VswtGHnclZ0MFtlXAJz-19">
          <mxGeometry x="10" y="70" width="160" height="140" as="geometry" />
        </mxCell>
        <mxCell id="9VswtGHnclZ0MFtlXAJz-23" value="Laptop_Model" style="swimlane;whiteSpace=wrap;html=1;startSize=40;" parent="1" vertex="1">
          <mxGeometry x="320" y="490" width="180" height="190" as="geometry" />
        </mxCell>
        <mxCell id="akFNyRGLj6l6cy-h_4zu-1" value="&lt;div&gt;+getRAM() String&lt;br&gt;+setRAM() :void&lt;/div&gt;+getName() :String&lt;br&gt;+setName() :void&lt;br&gt;+getType() :String&lt;br&gt;+setType() :void&lt;div&gt;&lt;br&gt;&lt;div&gt;&lt;br&gt;&lt;/div&gt;&lt;/div&gt;" style="text;html=1;align=center;verticalAlign=middle;resizable=0;points=[];autosize=1;strokeColor=none;fillColor=none;" vertex="1" parent="9VswtGHnclZ0MFtlXAJz-23">
          <mxGeometry x="25" y="70" width="130" height="130" as="geometry" />
        </mxCell>
        <mxCell id="9VswtGHnclZ0MFtlXAJz-28" value="uses" style="text;html=1;align=center;verticalAlign=middle;resizable=0;points=[];autosize=1;strokeColor=none;fillColor=none;" parent="1" vertex="1">
          <mxGeometry x="420" y="440" width="50" height="30" as="geometry" />
        </mxCell>
        <mxCell id="9VswtGHnclZ0MFtlXAJz-29" value="uses" style="text;html=1;align=center;verticalAlign=middle;resizable=0;points=[];autosize=1;strokeColor=none;fillColor=none;" parent="1" vertex="1">
          <mxGeometry x="550" y="290" width="50" height="30" as="geometry" />
        </mxCell>
        <mxCell id="9VswtGHnclZ0MFtlXAJz-30" value="updates" style="text;html=1;align=center;verticalAlign=middle;resizable=0;points=[];autosize=1;strokeColor=none;fillColor=none;" parent="1" vertex="1">
          <mxGeometry x="230" y="290" width="70" height="30" as="geometry" />
        </mxCell>
      </root>
    </mxGraphModel>
  </diagram>
</mxfile>
